<?xml version="1.0" standalone="no"?><!DOCTYPE svg PUBLIC "-//W3C//DTD SVG 1.1//EN" "http://www.w3.org/Graphics/SVG/1.1/DTD/svg11.dtd"><svg t="1603524407997" class="icon" viewBox="0 0 1024 1024" version="1.1" xmlns="http://www.w3.org/2000/svg" p-id="3316" xmlns:xlink="http://www.w3.org/1999/xlink" width="200" height="200"><defs><style type="text/css">@font-face { font-weight: 400; font-style: normal; font-family: Inter-Loom; src: url("https://cdn.loom.com/assets/fonts/inter/Inter-UI-Regular.woff2") format("woff2"); }
@font-face { font-weight: 400; font-style: italic; font-family: Inter-Loom; src: url("https://cdn.loom.com/assets/fonts/inter/Inter-UI-Italic.woff2") format("woff2"); }
@font-face { font-weight: 500; font-style: normal; font-family: Inter-Loom; src: url("https://cdn.loom.com/assets/fonts/inter/Inter-UI-Medium.woff2") format("woff2"); }
@font-face { font-weight: 500; font-style: italic; font-family: Inter-Loom; src: url("https://cdn.loom.com/assets/fonts/inter/Inter-UI-MediumItalic.woff2") format("woff2"); }
@font-face { font-weight: 700; font-style: normal; font-family: Inter-Loom; src: url("https://cdn.loom.com/assets/fonts/inter/Inter-UI-Bold.woff2") format("woff2"); }
@font-face { font-weight: 700; font-style: italic; font-family: Inter-Loom; src: url("https://cdn.loom.com/assets/fonts/inter/Inter-UI-BoldItalic.woff2") format("woff2"); }
@font-face { font-weight: 900; font-style: normal; font-family: Inter-Loom; src: url("https://cdn.loom.com/assets/fonts/inter/Inter-UI-Black.woff2") format("woff2"); }
@font-face { font-weight: 900; font-style: italic; font-family: Inter-Loom; src: url("https://cdn.loom.com/assets/fonts/inter/Inter-UI-BlackItalic.woff2") format("woff2"); }
</style></defs><path d="M162.4 1010.4c-16.8 0-32.8-5.6-46.4-16.8-17.6-14.4-26.4-35.2-25.6-56.8-20.8 4-43.2-1.6-60-16-30.4-25.6-34.4-72-8.8-102.4 24-28.8 64.8-33.6 95.2-13.6l134.4-159.2c4-4 9.6-6.4 15.2-5.6 5.6 0.8 10.4 4.8 12 10.4 5.6 15.2 12.8 27.2 23.2 36 10.4 8.8 23.2 14.4 39.2 17.6 5.6 0.8 10.4 4.8 12 10.4 1.6 5.6 0.8 11.2-3.2 16L216 888c24.8 26.4 26.4 68 2.4 96-14.4 17.6-35.2 26.4-56 26.4z m-46.4-120.8c4 0 7.2 1.6 10.4 4 6.4 5.6 7.2 14.4 3.2 21.6-12 17.6-8.8 40 7.2 53.6 8 7.2 18.4 10.4 29.6 9.6 11.2-0.8 20.8-6.4 27.2-14.4 7.2-8 10.4-19.2 9.6-29.6-0.8-11.2-6.4-20.8-14.4-27.2-1.6-0.8-3.2-2.4-4-3.2-4-2.4-6.4-6.4-7.2-11.2-0.8-4.8 0.8-8.8 3.2-12.8l128-152.8c-10.4-4-20-10.4-28.8-16.8-8-7.2-16-15.2-21.6-25.6l-128.8 152.8c-3.2 3.2-7.2 5.6-12 5.6s-8.8-1.6-12-4.8c-0.8-1.6-2.4-2.4-4-4-16.8-14.4-42.4-12-57.6 4.8-14.4 16.8-12 42.4 4.8 56.8 16 13.6 39.2 12.8 54.4-1.6 4.8-3.2 8.8-4.8 12.8-4.8z" p-id="3317" fill="#999999"></path><path d="M367.2 737.6c-33.6 0-63.2-8.8-86.4-28-124.8-104.8 51.2-475.2 129.6-608.8 4-6.4 12-9.6 19.2-7.2 16 5.6 32.8 7.2 48.8 4.8 16-3.2 32.8-11.2 49.6-19.2 28.8-13.6 59.2-28 93.6-20.8 5.6 1.6 10.4 3.2 15.2 4.8 6.4 2.4 12.8 4 17.6 4.8 12.8 0.8 24.8-8 38.4-18.4 7.2-5.6 14.4-10.4 22.4-15.2 28.8-16 65.6-17.6 96-4 2.4 1.6 5.6 2.4 8 4 6.4 3.2 12.8 6.4 17.6 6.4 5.6 0 12-3.2 18.4-6.4l3.2-1.6c28.8-13.6 60.8-20 93.6-19.2 4.8 0 9.6 2.4 12.8 7.2 78.4 112.8 70.4 265.6-17.6 370.4-77.6 93.6-394.4 346.4-580 346.4z m64-609.6C322.4 318.4 212 610.4 301.6 685.6c114.4 96 509.6-180 622.4-314.4 77.6-92 85.6-224.8 20.8-324.8-24.8 0.8-48.8 6.4-71.2 16.8l-3.2 0.8c-9.6 4.8-20.8 9.6-33.6 9.6s-22.4-5.6-32-10.4c-2.4-0.8-4.8-2.4-7.2-3.2-20.8-9.6-47.2-8.8-67.2 2.4-6.4 3.2-12.8 8-19.2 12.8-16 12-35.2 25.6-59.2 24.8-10.4-0.8-19.2-3.2-27.2-6.4-4-1.6-8-3.2-12-4-23.2-5.6-47.2 6.4-72.8 18.4-18.4 8.8-36.8 17.6-57.6 21.6-15.2 4-33.6 3.2-51.2-1.6z" p-id="3318" fill="#999999"></path><path d="M366.4 665.6c-4.8 0-8-3.2-8-8s3.2-8 8-8c136.8 0 424.8-208 514.4-314.4 3.2-3.2 8-4 11.2-0.8 3.2 3.2 4 8 0.8 11.2-90.4 108-385.6 320-526.4 320z" p-id="3319" fill="#999999"></path></svg>