<?xml version="1.0" standalone="no"?><!DOCTYPE svg PUBLIC "-//W3C//DTD SVG 1.1//EN" "http://www.w3.org/Graphics/SVG/1.1/DTD/svg11.dtd"><svg t="1603518590103" class="icon" viewBox="0 0 1024 1024" version="1.1" xmlns="http://www.w3.org/2000/svg" p-id="6135" xmlns:xlink="http://www.w3.org/1999/xlink" width="200" height="200"><defs><style type="text/css">@font-face { font-weight: 400; font-style: normal; font-family: Inter-Loom; src: url("https://cdn.loom.com/assets/fonts/inter/Inter-UI-Regular.woff2") format("woff2"); }
@font-face { font-weight: 400; font-style: italic; font-family: Inter-Loom; src: url("https://cdn.loom.com/assets/fonts/inter/Inter-UI-Italic.woff2") format("woff2"); }
@font-face { font-weight: 500; font-style: normal; font-family: Inter-Loom; src: url("https://cdn.loom.com/assets/fonts/inter/Inter-UI-Medium.woff2") format("woff2"); }
@font-face { font-weight: 500; font-style: italic; font-family: Inter-Loom; src: url("https://cdn.loom.com/assets/fonts/inter/Inter-UI-MediumItalic.woff2") format("woff2"); }
@font-face { font-weight: 700; font-style: normal; font-family: Inter-Loom; src: url("https://cdn.loom.com/assets/fonts/inter/Inter-UI-Bold.woff2") format("woff2"); }
@font-face { font-weight: 700; font-style: italic; font-family: Inter-Loom; src: url("https://cdn.loom.com/assets/fonts/inter/Inter-UI-BoldItalic.woff2") format("woff2"); }
@font-face { font-weight: 900; font-style: normal; font-family: Inter-Loom; src: url("https://cdn.loom.com/assets/fonts/inter/Inter-UI-Black.woff2") format("woff2"); }
@font-face { font-weight: 900; font-style: italic; font-family: Inter-Loom; src: url("https://cdn.loom.com/assets/fonts/inter/Inter-UI-BlackItalic.woff2") format("woff2"); }
</style></defs><path d="M687.1 176.1c-50.4-14.8-107.1-3.2-147.9 35.6s-55.4 94.8-43.1 145.9c50.4 14.8 107.1 3.2 147.9-35.6s55.4-94.8 43.1-145.9z" fill="#3A960F" p-id="6136"></path><path d="M539.3 373.9c-15.5 0-31-2.2-46-6.6l-5.5-1.6-1.3-5.6c-6.5-27.2-5.9-55.8 1.8-82.6 7.9-27.7 23.2-52.9 44.2-72.8 21-19.9 46.9-33.9 75-40.4 27.2-6.3 55.8-5.4 82.6 2.4l5.5 1.6 1.3 5.6c6.5 27.2 5.9 55.8-1.8 82.6-7.9 27.7-23.2 52.9-44.2 72.8-21 19.9-46.9 33.9-75 40.4-12 2.8-24.3 4.2-36.6 4.2z m-34.7-24.3c47 11.8 97.3-1.3 132.5-34.8s50.9-83.1 41.5-130.6c-47-11.8-97.3 1.3-132.5 34.8s-50.9 83.1-41.5 130.6z" fill="" p-id="6137"></path><path d="M508 414.1c-5.2 0-9.6-4-10-9.2-3.2-42.8-12.4-79.4-27.2-108.7-11.6-23.1-26.8-41.7-45.1-55.5-16.2-12.2-32-18.2-42.4-21.1-11.4-3.2-19-3.4-19-3.4-5.5-0.2-9.9-4.7-9.7-10.2s4.7-9.8 10.2-9.8c1.4 0 35.8 1 71.9 27.7 21 15.5 38.4 36.5 51.6 62.4 16.2 31.8 26.2 71.2 29.7 117.1 0.4 5.5-3.7 10.3-9.2 10.7h-0.8z" fill="" p-id="6138"></path><path d="M425.5 414m-86.2 0a86.2 86.2 0 1 0 172.4 0 86.2 86.2 0 1 0-172.4 0Z" fill="#B668CA" p-id="6139"></path><path d="M425.5 510.2c-53.1 0-96.2-43.2-96.2-96.2s43.2-96.2 96.2-96.2 96.2 43.2 96.2 96.2-43.1 96.2-96.2 96.2z m0-172.5c-42 0-76.2 34.2-76.2 76.2s34.2 76.2 76.2 76.2 76.2-34.2 76.2-76.2c0.1-42-34.1-76.2-76.2-76.2z" fill="" p-id="6140"></path><path d="M362.4 523.9m-86.2 0a86.2 86.2 0 1 0 172.4 0 86.2 86.2 0 1 0-172.4 0Z" fill="#B668CA" p-id="6141"></path><path d="M362.4 620.1c-53.1 0-96.2-43.2-96.2-96.2 0-53.1 43.2-96.2 96.2-96.2s96.2 43.2 96.2 96.2-43.2 96.2-96.2 96.2z m0-172.5c-42 0-76.2 34.2-76.2 76.2s34.2 76.2 76.2 76.2 76.2-34.2 76.2-76.2-34.2-76.2-76.2-76.2z" fill="" p-id="6142"></path><path d="M588.1 414m-86.2 0a86.2 86.2 0 1 0 172.4 0 86.2 86.2 0 1 0-172.4 0Z" fill="#B668CA" p-id="6143"></path><path d="M588.1 510.2c-53.1 0-96.2-43.2-96.2-96.2s43.2-96.2 96.2-96.2 96.2 43.2 96.2 96.2-43.1 96.2-96.2 96.2z m0-172.5c-42 0-76.2 34.2-76.2 76.2s34.2 76.2 76.2 76.2 76.2-34.2 76.2-76.2c0.1-42-34.1-76.2-76.2-76.2z" fill="" p-id="6144"></path><path d="M511.8 523.9m-86.2 0a86.2 86.2 0 1 0 172.4 0 86.2 86.2 0 1 0-172.4 0Z" fill="#B668CA" p-id="6145"></path><path d="M511.8 620.1c-53.1 0-96.2-43.2-96.2-96.2 0-53.1 43.2-96.2 96.2-96.2s96.2 43.2 96.2 96.2-43.2 96.2-96.2 96.2z m0-172.5c-42 0-76.2 34.2-76.2 76.2s34.2 76.2 76.2 76.2 76.2-34.2 76.2-76.2-34.2-76.2-76.2-76.2z" fill="" p-id="6146"></path><path d="M662 523.9m-86.2 0a86.2 86.2 0 1 0 172.4 0 86.2 86.2 0 1 0-172.4 0Z" fill="#B668CA" p-id="6147"></path><path d="M662 620.1c-53.1 0-96.2-43.2-96.2-96.2 0-53.1 43.2-96.2 96.2-96.2s96.2 43.2 96.2 96.2c0.1 53-43.1 96.2-96.2 96.2z m0-172.5c-42 0-76.2 34.2-76.2 76.2S620 600 662 600s76.2-34.2 76.2-76.2c0.1-42-34.1-76.2-76.2-76.2z" fill="" p-id="6148"></path><path d="M441.7 673.9m-86.2 0a86.2 86.2 0 1 0 172.4 0 86.2 86.2 0 1 0-172.4 0Z" fill="#B668CA" p-id="6149"></path><path d="M441.7 770.1c-53.1 0-96.2-43.2-96.2-96.2s43.2-96.2 96.2-96.2c53.1 0 96.2 43.2 96.2 96.2s-43.1 96.2-96.2 96.2z m0-172.5c-42 0-76.2 34.2-76.2 76.2s34.2 76.2 76.2 76.2 76.2-34.2 76.2-76.2-34.2-76.2-76.2-76.2z" fill="" p-id="6150"></path><path d="M591.1 673.9m-86.2 0a86.2 86.2 0 1 0 172.4 0 86.2 86.2 0 1 0-172.4 0Z" fill="#B668CA" p-id="6151"></path><path d="M591.1 770.1c-53.1 0-96.2-43.2-96.2-96.2s43.2-96.2 96.2-96.2 96.2 43.2 96.2 96.2-43.1 96.2-96.2 96.2z m0-172.5c-42 0-76.2 34.2-76.2 76.2s34.2 76.2 76.2 76.2 76.2-34.2 76.2-76.2-34.2-76.2-76.2-76.2z" fill="" p-id="6152"></path><path d="M512.6 793.3m-86.2 0a86.2 86.2 0 1 0 172.4 0 86.2 86.2 0 1 0-172.4 0Z" fill="#B668CA" p-id="6153"></path><path d="M512.6 889.5c-53.1 0-96.2-43.2-96.2-96.2s43.2-96.2 96.2-96.2 96.2 43.2 96.2 96.2-43.2 96.2-96.2 96.2z m0-172.4c-42 0-76.2 34.2-76.2 76.2s34.2 76.2 76.2 76.2 76.2-34.2 76.2-76.2-34.2-76.2-76.2-76.2z" fill="" p-id="6154"></path></svg>