<?xml version="1.0" standalone="no"?><!DOCTYPE svg PUBLIC "-//W3C//DTD SVG 1.1//EN" "http://www.w3.org/Graphics/SVG/1.1/DTD/svg11.dtd"><svg t="1603524500108" class="icon" viewBox="0 0 1024 1024" version="1.1" xmlns="http://www.w3.org/2000/svg" p-id="7140" xmlns:xlink="http://www.w3.org/1999/xlink" width="200" height="200"><defs><style type="text/css">@font-face { font-weight: 400; font-style: normal; font-family: Inter-Loom; src: url("https://cdn.loom.com/assets/fonts/inter/Inter-UI-Regular.woff2") format("woff2"); }
@font-face { font-weight: 400; font-style: italic; font-family: Inter-Loom; src: url("https://cdn.loom.com/assets/fonts/inter/Inter-UI-Italic.woff2") format("woff2"); }
@font-face { font-weight: 500; font-style: normal; font-family: Inter-Loom; src: url("https://cdn.loom.com/assets/fonts/inter/Inter-UI-Medium.woff2") format("woff2"); }
@font-face { font-weight: 500; font-style: italic; font-family: Inter-Loom; src: url("https://cdn.loom.com/assets/fonts/inter/Inter-UI-MediumItalic.woff2") format("woff2"); }
@font-face { font-weight: 700; font-style: normal; font-family: Inter-Loom; src: url("https://cdn.loom.com/assets/fonts/inter/Inter-UI-Bold.woff2") format("woff2"); }
@font-face { font-weight: 700; font-style: italic; font-family: Inter-Loom; src: url("https://cdn.loom.com/assets/fonts/inter/Inter-UI-BoldItalic.woff2") format("woff2"); }
@font-face { font-weight: 900; font-style: normal; font-family: Inter-Loom; src: url("https://cdn.loom.com/assets/fonts/inter/Inter-UI-Black.woff2") format("woff2"); }
@font-face { font-weight: 900; font-style: italic; font-family: Inter-Loom; src: url("https://cdn.loom.com/assets/fonts/inter/Inter-UI-BlackItalic.woff2") format("woff2"); }
</style></defs><path d="M768 53.333333a32 32 0 0 1 32 32v597.333334a32 32 0 0 1-32 32H117.333333V853.333333c0 27.605333 20.992 50.346667 47.872 53.077334L170.666667 906.666667h682.666666a53.333333 53.333333 0 0 0 53.077334-47.872L906.666667 853.333333V256a32 32 0 0 1 63.701333-4.352L970.666667 256v597.333333a117.333333 117.333333 0 0 1-110.165334 117.12L853.333333 970.666667H170.666667a117.333333 117.333333 0 0 1-117.12-110.165334L53.333333 853.333333V170.666667l0.213334-7.168A117.333333 117.333333 0 0 1 170.666667 53.333333z m-32 64H170.666667c-29.44 0-53.333333 23.893333-53.333334 53.333334v480h618.666667V117.333333z" p-id="7141" fill="#999999"></path><path d="M640 778.666667a32 32 0 0 1 4.352 63.701333L640 842.666667H213.333333a32 32 0 0 1-4.352-63.701334L213.333333 778.666667h426.666667z" p-id="7142" fill="#999999"></path></svg>